<svg width="20" height="13" viewBox="0 0 20 13" fill="none" xmlns="http://www.w3.org/2000/svg">
<path fill-rule="evenodd" clip-rule="evenodd" d="M12.4951 6.21616C12.4951 9.65 9.69854 12.4324 6.24757 12.4324C2.79659 12.4324 0 9.6494 0 6.21616C0 2.78295 2.79728 0 6.24757 0C9.69784 0 12.4951 2.78295 12.4951 6.21616Z" fill="#FF3D57"/>
<path fill-rule="evenodd" clip-rule="evenodd" d="M13.7507 0C12.3496 0 11.0596 0.464359 10.0172 1.23954L10.0223 1.24016C10.2273 1.43719 10.4535 1.57586 10.6278 1.80269L9.32795 1.82321C9.12422 2.02775 8.9386 2.25028 8.76362 2.48153H11.0559C11.2303 2.68975 11.3915 2.8707 11.5377 3.10066H8.34805C8.23119 3.30083 8.12308 3.50659 8.0287 3.72039H11.9009C12.0021 3.93359 12.0927 4.09462 12.1696 4.32029H7.79935C7.73 4.53478 7.67065 4.75418 7.62562 4.97793H12.3527C12.399 5.19304 12.4345 5.39191 12.4589 5.59459H7.53184C7.51124 5.79914 7.5006 6.00676 7.5006 6.21627H12.4945C12.4945 6.43632 12.4789 6.64016 12.4564 6.83789H7.53184C7.55308 7.04865 7.58438 7.25562 7.62562 7.45957H12.3451C12.2964 7.66092 12.2402 7.86357 12.1696 8.07368H7.78497C7.85119 8.28627 7.93184 8.49265 8.01995 8.69405H11.9009C11.7934 8.92032 11.6715 9.10119 11.5372 9.31313H8.33687C8.46314 9.5307 8.60249 9.73832 8.75368 9.93724L11.0559 9.97141C10.8597 10.2057 10.6079 10.3469 10.3785 10.552C10.391 10.5619 10.0116 10.5508 9.26481 10.539C10.401 11.7052 11.9889 12.4324 13.7506 12.4324C17.2022 12.4324 20 9.6494 20 6.21627C20 2.78309 17.2028 0 13.7507 0Z" fill="#FDBF5E"/>
</svg>
